<svg id="Capa_1" enable-background="new 0 0 512 512" height="512" viewBox="0 0 512 512" width="512" xmlns="http://www.w3.org/2000/svg" xmlns:xlink="http://www.w3.org/1999/xlink"><linearGradient id="SVGID_1_" gradientUnits="userSpaceOnUse" x1="74.981" x2="437.019" y1="74.981" y2="437.019"><stop offset="0" stop-color="#9cd6f4"/><stop offset="1" stop-color="#7fa6fb"/></linearGradient><linearGradient id="SVGID_2_" gradientUnits="userSpaceOnUse" x1="231.854" x2="330.87" y1="112.306" y2="211.321"><stop offset="0" stop-color="#f6dfb9"/><stop offset="1" stop-color="#eebda9"/></linearGradient><linearGradient id="SVGID_3_" gradientUnits="userSpaceOnUse" x1="163.278" x2="355.472" y1="223.501" y2="415.695"><stop offset="0" stop-color="#e27a4e"/><stop offset=".9812" stop-color="#dc455b"/></linearGradient><linearGradient id="SVGID_4_" gradientUnits="userSpaceOnUse" x1="164.312" x2="354.55" y1="262.168" y2="452.405"><stop offset="0" stop-color="#f1f6ff"/><stop offset=".9846" stop-color="#dfe5f2"/></linearGradient><g><circle cx="256" cy="256" fill="url(#SVGID_1_)" r="256"/><g><g><g><path d="m240.858 103.302-58.717 101.335 43.483 38.789 54.703 18.437 84.569-158.561z" fill="url(#SVGID_2_)"/><g><g><path d="m344.574 301.332h-4.647l-20.006 14.119-2.016-15.234h-.006c-7.373-1.503-14.232-4.491-20.221-8.703l-15.335 6.639 2.547-19.302c-2.785-3.871-5.082-8.154-6.806-12.783l2.243-4.205-49.09-28.613-49.096-28.613-54.703 94.405 6.012 20.298c11.655 9.323 23.835 17.715 36.439 25.172 49.162 29.084 104.729 43.889 160.453 43.889l67.915-15.491v-17.894c0-29.604-24.08-53.684-53.683-53.684z" fill="url(#SVGID_3_)"/></g><path d="m398.257 372.91v35.789h-73.313c-57.572 0-114.989-14.846-166.167-44.02-15.085-8.595-29.627-18.443-43.471-29.52l-6.013-4.808c.28-.489 7.915-13.659 18.145-31.309l6.012 4.808c13.641 10.916 28.011 20.555 42.928 28.899 47.533 26.621 100.68 40.161 153.963 40.161z" fill="url(#SVGID_4_)"/></g></g></g><g><g><path d="m297.679 291.514-26.645 33.301-13.969-11.178 27.826-34.786c2.285 3.185 4.897 6.096 7.784 8.685 1.586 1.425 3.262 2.756 5.004 3.978z" fill="#dfe5f2"/></g><g><path d="m339.927 301.332-33.104 41.378-13.97-11.178 25.046-31.315h.006c3.579.734 7.277 1.115 11.059 1.115z" fill="#dfe5f2"/></g></g></g></g></svg>